<svg width="1920" height="1040" viewBox="0 0 1920 1040" fill="none" xmlns="http://www.w3.org/2000/svg">
<path fill-rule="evenodd" clip-rule="evenodd" d="M204.497 1039.53V932.734H97.568L97.568 1039.53H96.568L96.568 932.734H0V931.734H96.568V814.58H0V813.58H96.568L96.5681 696.426H0V695.426H96.5681L96.5681 578.272H0V577.272H96.5681V460.118H0V459.118H96.5681L96.5681 341.965H0V340.965H96.5681L96.5681 223.811H0V222.811H96.5681V105.657H0V104.657H96.5681L96.5681 7.95722e-06L97.5681 8.00093e-06L97.5681 104.657H204.497V0H205.497V104.657H312.426V0H313.426V104.657H420.355V0H421.355V104.657H528.284V0H529.284V104.657H636.213V0H637.213V104.657H744.142V0H745.142V104.657H852.071V0H853.071V104.657H960V0H961V104.657H1067.93V0H1068.93V104.657H1175.86V0H1176.86V104.657H1283.79V0H1284.79V104.657H1391.72V0H1392.72V104.657H1499.64V0H1500.64V104.657H1607.57V0H1608.57V104.657H1715.5V0H1716.5V104.657H1823.43V0H1824.43V104.657H1920V105.657H1824.43V222.811H1920V223.811H1824.43V340.965H1920V341.965H1824.43V459.118H1920V460.118H1824.43V577.272H1920V578.272H1824.43V695.426H1920V696.426H1824.43V813.58H1920V814.58H1824.43V931.734H1920V932.734H1824.43V1039.53H1823.43V932.734H1716.5V1039.53H1715.5V932.734H1608.57V1039.53H1607.57V932.734H1500.64V1039.53H1499.64V932.734H1392.72V1039.53H1391.72V932.734H1284.79V1039.53H1283.79V932.734H1176.86V1039.53H1175.86V932.734H1068.93V1039.53H1067.93V932.734H961V1039.53H960V932.734H853.071V1039.53H852.071V932.734H745.142V1039.53H744.142V932.734H637.213V1039.53H636.213V932.734H529.284V1039.53H528.284V932.734H421.355V1039.53H420.355V932.734H313.426V1039.53H312.426V932.734H205.497V1039.53H204.497ZM1823.43 931.734V814.58H1716.5V931.734H1823.43ZM1823.43 813.58V696.426H1716.5V813.58H1823.43ZM1823.43 695.426V578.272H1716.5V695.426H1823.43ZM1823.43 577.272V460.118H1716.5V577.272H1823.43ZM1823.43 459.118V341.965H1716.5V459.118H1823.43ZM1823.43 340.965V223.811H1716.5V340.965H1823.43ZM1823.43 222.811V105.657H1716.5V222.811H1823.43ZM1608.57 105.657H1715.5V222.811H1608.57V105.657ZM1608.57 223.811H1715.5V340.965H1608.57V223.811ZM1608.57 341.965H1715.5V459.118H1608.57V341.965ZM1608.57 460.118H1715.5V577.272H1608.57V460.118ZM1608.57 578.272H1715.5V695.426H1608.57V578.272ZM1608.57 696.426H1715.5V813.58H1608.57V696.426ZM1608.57 814.58H1715.5V931.734H1608.57V814.58ZM1607.57 931.734V814.58H1500.64V931.734H1607.57ZM1607.57 813.58V696.426H1500.64V813.58H1607.57ZM1607.57 695.426V578.272H1500.64V695.426H1607.57ZM1607.57 577.272V460.118H1500.64V577.272H1607.57ZM1607.57 459.118V341.965H1500.64V459.118H1607.57ZM1607.57 340.965V223.811H1500.64V340.965H1607.57ZM1607.57 222.811V105.657H1500.64V222.811H1607.57ZM1392.72 105.657H1499.64V222.811H1392.72V105.657ZM1392.72 223.811H1499.64V340.965H1392.72V223.811ZM1392.72 341.965H1499.64V459.118H1392.72V341.965ZM1392.72 460.118H1499.64V577.272H1392.72V460.118ZM1392.72 578.272H1499.64V695.426H1392.72V578.272ZM1392.72 696.426H1499.64V813.58H1392.72V696.426ZM1392.72 814.58H1499.64V931.734H1392.72V814.58ZM1391.72 931.734V814.58H1284.79V931.734H1391.72ZM1391.72 813.58V696.426H1284.79V813.58H1391.72ZM1391.72 695.426V578.272H1284.79V695.426H1391.72ZM1391.72 577.272V460.118H1284.79V577.272H1391.72ZM1391.72 459.118V341.965H1284.79V459.118H1391.72ZM1391.72 340.965V223.811H1284.79V340.965H1391.72ZM1391.72 222.811V105.657H1284.79V222.811H1391.72ZM1176.86 105.657H1283.79V222.811H1176.86V105.657ZM1176.86 223.811H1283.79V340.965H1176.86V223.811ZM1176.86 341.965H1283.79V459.118H1176.86V341.965ZM1176.86 460.118H1283.79V577.272H1176.86V460.118ZM1176.86 578.272H1283.79V695.426H1176.86V578.272ZM1176.86 696.426H1283.79V813.58H1176.86V696.426ZM1176.86 814.58H1283.79V931.734H1176.86V814.58ZM1175.86 931.734V814.58H1068.93V931.734H1175.86ZM1175.86 813.58V696.426H1068.93V813.58H1175.86ZM1175.86 695.426V578.272H1068.93V695.426H1175.86ZM1175.86 577.272V460.118H1068.93V577.272H1175.86ZM1175.86 459.118V341.965H1068.93V459.118H1175.86ZM1175.86 340.965V223.811H1068.93V340.965H1175.86ZM1175.86 222.811V105.657H1068.93V222.811H1175.86ZM961 105.657H1067.93V222.811H961V105.657ZM961 223.811H1067.93V340.965H961V223.811ZM961 341.965H1067.93V459.118H961V341.965ZM961 460.118H1067.93V577.272H961L961 460.118ZM961 578.272H1067.93V695.426H961V578.272ZM961 696.426H1067.93V813.58H961V696.426ZM961 814.58H1067.93V931.734H961V814.58ZM960 931.734V814.58H853.071V931.734H960ZM960 813.58V696.426H853.071V813.58H960ZM960 695.426V578.272H853.071V695.426H960ZM960 577.272L960 460.118H853.071L853.071 577.272H960ZM960 459.118V341.965H853.071V459.118H960ZM960 340.965V223.811H853.071V340.965H960ZM960 222.811V105.657H853.071V222.811H960ZM745.142 105.657H852.071V222.811H745.142V105.657ZM745.142 223.811H852.071V340.965H745.142V223.811ZM745.142 341.965H852.071V459.118H745.142V341.965ZM745.142 460.118H852.071L852.071 577.272H745.142L745.142 460.118ZM745.142 578.272H852.071V695.426H745.142V578.272ZM745.142 696.426H852.071V813.58H745.142V696.426ZM745.142 814.58H852.071V931.734H745.142V814.58ZM744.142 931.734V814.58H637.213V931.734H744.142ZM744.142 813.58V696.426H637.213V813.58H744.142ZM744.142 695.426V578.272H637.213V695.426H744.142ZM744.142 577.272L744.142 460.118H637.213L637.213 577.272H744.142ZM744.142 459.118V341.965H637.213V459.118H744.142ZM744.142 340.965V223.811H637.213V340.965H744.142ZM744.142 222.811V105.657H637.213V222.811H744.142ZM529.284 105.657H636.213V222.811H529.284V105.657ZM529.284 223.811H636.213V340.965H529.284V223.811ZM529.284 341.965H636.213V459.118H529.284V341.965ZM529.284 460.118H636.213L636.213 577.272H529.284V460.118ZM529.284 578.272H636.213V695.426H529.284V578.272ZM529.284 696.426H636.213V813.58H529.284V696.426ZM529.284 814.58H636.213V931.734H529.284V814.58ZM528.284 931.734V814.58H421.355V931.734H528.284ZM528.284 813.58V696.426H421.355L421.355 813.58H528.284ZM528.284 695.426V578.272H421.355V695.426H528.284ZM528.284 577.272V460.118H421.355V577.272H528.284ZM528.284 459.118V341.965H421.355V459.118H528.284ZM528.284 340.965V223.811H421.355L421.355 340.965H528.284ZM528.284 222.811V105.657H421.355V222.811H528.284ZM313.426 105.657H420.355V222.811H313.426V105.657ZM313.426 223.811H420.355L420.355 340.965H313.426V223.811ZM313.426 341.965H420.355V459.118H313.426V341.965ZM313.426 460.118H420.355V577.272H313.426L313.426 460.118ZM313.426 578.272H420.355V695.426H313.426V578.272ZM313.426 696.426H420.355L420.355 813.58H313.426V696.426ZM313.426 814.58H420.355V931.734H313.426V814.58ZM312.426 931.734V814.58H205.497L205.497 931.734H312.426ZM312.426 813.58V696.426H205.497V813.58H312.426ZM312.426 695.426V578.272H205.497V695.426H312.426ZM312.426 577.272L312.426 460.118H205.497L205.497 577.272H312.426ZM312.426 459.118V341.965H205.497V459.118H312.426ZM312.426 340.965V223.811H205.497V340.965H312.426ZM312.426 222.811V105.657H205.497L205.497 222.811H312.426ZM204.497 814.58L204.497 931.734H97.568V814.58H204.497ZM204.497 696.426V813.58H97.568L97.5681 696.426H204.497ZM204.497 578.272V695.426H97.5681L97.5681 578.272H204.497ZM204.497 460.118L204.497 577.272H97.5681V460.118H204.497ZM204.497 341.965V459.118H97.5681L97.5681 341.965H204.497ZM204.497 223.811V340.965H97.5681L97.5681 223.811H204.497ZM204.497 105.657L204.497 222.811H97.5681V105.657H204.497Z" fill="url(#paint0_radial_17_9)"/>
<defs>
<radialGradient id="paint0_radial_17_9" cx="0" cy="0" r="1" gradientUnits="userSpaceOnUse" gradientTransform="translate(960 519.763) rotate(90) scale(519.763 960)">
<stop offset="0.5" stop-color="white" stop-opacity="0.4"/>
<stop offset="1" stop-color="#192626" stop-opacity="0"/>
</radialGradient>
</defs>
</svg>
